<?xml version="1.0" encoding="UTF-8"?>
<!DOCTYPE svg PUBLIC "-//W3C//DTD SVG 1.1//EN" "http://www.w3.org/Graphics/SVG/1.1/DTD/svg11.dtd">
<!-- Creator: CorelDRAW X6 -->
<svg xmlns="http://www.w3.org/2000/svg" xml:space="preserve" width="60.7904mm" height="61.0448mm" version="1.1" style="shape-rendering:geometricPrecision; text-rendering:geometricPrecision; image-rendering:optimizeQuality; fill-rule:evenodd; clip-rule:evenodd"
viewBox="0 0 6079 6104"
 xmlns:xlink="http://www.w3.org/1999/xlink">
 <defs>
  <style type="text/css">
   <![CDATA[
    .fil0 {fill:#C5C3C0}
   ]]>
  </style>
 </defs>
 <g id="Слой_x0020_1">
  <metadata id="CorelCorpID_0Corel-Layer"/>
  <g id="github-logo_icon-icons.com_73546.svg">
   <g>
    <path class="fil0" d="M5656 1530c-270,-466 -637,-835 -1100,-1108 -463,-272 -969,-408 -1517,-408 -548,0 -1054,136 -1517,408 -463,273 -830,642 -1100,1108 -271,467 -406,976 -406,1528 0,664 192,1260 577,1790 384,530 881,897 1490,1100 70,13 123,4 157,-28 34,-31 51,-71 51,-119 0,-7 -1,-79 -2,-214 -1,-134 -2,-252 -2,-352l-90 15c-58,11 -131,16 -219,14 -88,-1 -179,-10 -273,-27 -95,-17 -183,-57 -264,-119 -81,-62 -139,-144 -173,-244l-40 -91c-26,-61 -67,-128 -124,-202 -56,-74 -113,-125 -171,-151l-27 -20c-19,-13 -36,-29 -52,-47 -15,-19 -27,-37 -35,-56 -8,-18 -1,-34 20,-46 21,-12 59,-17 114,-17l79 12c52,10 117,42 194,95 78,53 141,121 191,206 61,108 133,191 219,248 85,56 171,85 258,85 86,0 161,-7 224,-20 63,-13 122,-33 177,-60 24,-177 88,-313 193,-408 -150,-16 -284,-40 -404,-71 -119,-32 -242,-83 -370,-155 -127,-71 -232,-160 -316,-265 -84,-106 -153,-245 -207,-417 -54,-171 -81,-370 -81,-594 0,-320 104,-592 311,-817 -97,-240 -88,-510 28,-809 76,-23 189,-5 338,54 150,59 259,110 329,153 70,42 125,78 167,107 244,-69 496,-103 756,-103 260,0 512,34 756,103l149 -95c103,-64 223,-122 362,-175 139,-53 246,-67 319,-43 118,298 129,568 32,808 207,225 311,497 311,817 0,224 -27,423 -81,596 -54,173 -123,312 -208,417 -86,104 -192,192 -319,263 -128,71 -251,123 -370,155 -120,31 -254,55 -404,71 137,119 205,307 205,563l0 836c0,48 16,88 49,119 33,32 85,41 155,28 609,-203 1106,-570 1490,-1100 385,-530 577,-1126 577,-1790 0,-552 -135,-1061 -406,-1528z"/>
   </g>
   <g>
   </g>
   <g>
   </g>
   <g>
   </g>
   <g>
   </g>
   <g>
   </g>
   <g>
   </g>
   <g>
   </g>
   <g>
   </g>
   <g>
   </g>
   <g>
   </g>
   <g>
   </g>
   <g>
   </g>
   <g>
   </g>
   <g>
   </g>
   <g>
   </g>
  </g>
 </g>
</svg>
