<?xml version="1.0" encoding="UTF-8"?>
<!DOCTYPE svg PUBLIC "-//W3C//DTD SVG 1.1//EN" "http://www.w3.org/Graphics/SVG/1.1/DTD/svg11.dtd">
<!-- Creator: CorelDRAW X6 -->
<svg xmlns="http://www.w3.org/2000/svg" xml:space="preserve" width="60.7904mm" height="61.0448mm" version="1.1" style="shape-rendering:geometricPrecision; text-rendering:geometricPrecision; image-rendering:optimizeQuality; fill-rule:evenodd; clip-rule:evenodd"
viewBox="0 0 6079 6104"
 xmlns:xlink="http://www.w3.org/1999/xlink">
 <defs>
  <style type="text/css">
   <![CDATA[
    .fil0 {fill:#4D76A5}
    .fil1 {fill:#C5C3C0}
   ]]>
  </style>
 </defs>
 <g id="Слой_x0020_1">
  <metadata id="CorelCorpID_0Corel-Layer"/>
  <ellipse class="fil0" cx="3008" cy="3064" rx="2994" ry="3033"/>
  <g id="media_social_vk_vkontakte_icon_124252.svg">
   <g id="guidlines">
   </g>
   <g id="FB">
   </g>
   <g id="ig">
   </g>
   <g id="yt">
   </g>
   <g id="twitter">
   </g>
   <g id="snapchat">
   </g>
   <g id="WA">
   </g>
   <g id="Pinterrest">
   </g>
   <g id="Layer_9">
   </g>
   <g id="Layer_10">
   </g>
   <g id="Layer_11">
    <path class="fil1" d="M758 1876c159,0 401,0 538,0 68,0 121,46 144,107 68,197 220,629 394,924 235,387 387,531 485,516 99,-23 69,-281 69,-485 0,-205 22,-554 -76,-713l-152 -220c-38,-53 0,-121 61,-121l864 0c83,0 152,68 152,152l0 1099c0,0 37,197 250,-8 212,-204 439,-583 629,-970l76 -182c23,-53 76,-91 136,-91l561 0c106,0 182,106 144,205l-60 159c0,0 -205,409 -417,697 -213,296 -258,364 -228,440 31,76 576,584 713,826 38,69 68,129 98,182 53,99 -22,228 -136,228l-637 0c-53,0 -106,-31 -129,-76l-60 -99c0,0 -387,-455 -622,-599 -243,-136 -235,61 -235,61l0 402c0,167 -136,303 -303,303l-152 0c0,0 -834,0 -1501,-993 -523,-773 -697,-1274 -758,-1562 -15,-91 53,-182 152,-182z"/>
   </g>
   <g id="Layer_12">
   </g>
   <g id="Layer_13">
   </g>
   <g id="Layer_14">
   </g>
   <g id="Layer_15">
   </g>
   <g id="Layer_16">
   </g>
   <g id="Layer_17">
   </g>
  </g>
 </g>
</svg>
